<?xml version="1.0" encoding="UTF-8" standalone="no"?>
<svg
   xmlns:dc="http://purl.org/dc/elements/1.1/"
   xmlns:cc="http://creativecommons.org/ns#"
   xmlns:rdf="http://www.w3.org/1999/02/22-rdf-syntax-ns#"
   xmlns:svg="http://www.w3.org/2000/svg"
   xmlns="http://www.w3.org/2000/svg"
   xmlns:sodipodi="http://sodipodi.sourceforge.net/DTD/sodipodi-0.dtd"
   xmlns:inkscape="http://www.inkscape.org/namespaces/inkscape"
   version="1.1"
   id="svg2"
   xml:space="preserve"
   width="793.70135"
   height="1122.52"
   viewBox="0 0 793.70135 1122.52"
   sodipodi:docname="all out logo 2.ai"><metadata
     id="metadata8"><rdf:RDF><cc:Work
         rdf:about=""><dc:format>image/svg+xml</dc:format><dc:type
           rdf:resource="http://purl.org/dc/dcmitype/StillImage" /></cc:Work></rdf:RDF></metadata><defs
     id="defs6"><clipPath
       clipPathUnits="userSpaceOnUse"
       id="clipPath18"><path
         d="M 0,841.89 H 595.276 V 0 H 0 Z"
         id="path16" /></clipPath></defs><sodipodi:namedview
     pagecolor="#ffffff"
     bordercolor="#666666"
     borderopacity="1"
     objecttolerance="10"
     gridtolerance="10"
     guidetolerance="10"
     inkscape:pageopacity="0"
     inkscape:pageshadow="2"
     inkscape:window-width="640"
     inkscape:window-height="480"
     id="namedview4" /><g
     id="g10"
     inkscape:groupmode="layer"
     inkscape:label="all out logo 2"
     transform="matrix(1.3333333,0,0,-1.3333333,0,1122.52)"><g
       id="g12"><g
         id="g14"
         clip-path="url(#clipPath18)"><g
           id="g20"
           transform="translate(176.4805,417.8785)"><path
             d="M 0,0 C -5.248,-2.172 -9.253,-6.744 -10.647,-12.346 L -18.504,3.17 -31.793,-22.881 c -4.746,-9.969 -19.935,-6.961 -19.935,-6.961 l 33.224,66.451 z"
             style="fill:#d20a10;fill-opacity:1;fill-rule:nonzero;stroke:none"
             id="path22" /></g><g
           id="g24"
           transform="translate(201.0503,396.9926)"><path
             d="m 0,0 c 0.312,1.332 0.476,2.719 0.476,4.145 0,10.004 -8.111,18.115 -18.115,18.115 -1.002,0 -1.982,-0.082 -2.94,-0.239 l -17.589,35.474 c 0,0 13.923,2.372 19.776,-6.647 L -4.943,24.056 8.665,51.165 c 0,0 3.639,8.161 19.935,6.612 z"
             style="fill:#d20a10;fill-opacity:1;fill-rule:nonzero;stroke:none"
             id="path26" /></g><g
           id="g28"
           transform="translate(195.7765,401.1372)"><path
             d="m 0,0 c 0,-6.829 -5.536,-12.366 -12.366,-12.366 -6.829,0 -12.365,5.537 -12.365,12.366 0,6.829 5.536,12.366 12.365,12.366 C -5.536,12.366 0,6.829 0,0"
             style="fill:#1d1d1b;fill-opacity:1;fill-rule:nonzero;stroke:none"
             id="path30" /></g><g
           id="g32"
           transform="translate(334.4278,407.8582)"><path
             d="m 0,0 c 0,-0.122 -0.044,-0.183 -0.13,-0.183 -0.087,0 -0.147,0.111 -0.182,0.33 -0.104,0.631 -0.317,1.092 -0.637,1.382 -0.208,0.184 -0.53,0.298 -0.962,0.342 -0.156,0.018 -0.503,0.027 -1.04,0.027 -0.399,0 -0.876,-0.013 -1.43,-0.04 v -3.821 c 1.109,-0.009 1.794,0.063 2.054,0.214 0.26,0.151 0.416,0.579 0.468,1.281 0.017,0.2 0.069,0.299 0.156,0.299 0.086,0 0.13,-0.065 0.13,-0.195 0,-0.078 -0.005,-0.143 -0.013,-0.196 -0.026,-0.597 -0.039,-1.152 -0.039,-1.664 0,-0.658 0.014,-1.178 0.041,-1.559 0.007,-0.035 0.011,-0.087 0.011,-0.156 0,-0.104 -0.043,-0.157 -0.13,-0.157 -0.069,0 -0.112,0.027 -0.129,0.078 -0.018,0.053 -0.048,0.252 -0.091,0.599 -0.069,0.528 -0.205,0.858 -0.407,0.987 -0.203,0.131 -0.607,0.196 -1.21,0.196 -0.319,0 -0.6,-0.009 -0.841,-0.027 v -1.325 -2.549 c 0,-0.251 0.098,-0.411 0.295,-0.48 0.095,-0.035 0.305,-0.048 0.63,-0.039 0.137,0 0.206,-0.035 0.206,-0.105 0,-0.077 -0.087,-0.116 -0.261,-0.116 h -0.13 -0.494 -0.402 -1.938 c -0.164,0 -0.247,0.034 -0.247,0.105 0,0.069 0.15,0.112 0.45,0.129 0.298,0.018 0.474,0.059 0.526,0.125 0.052,0.065 0.078,0.267 0.078,0.606 v 7.483 c -0.01,0.158 -0.056,0.255 -0.139,0.294 -0.083,0.039 -0.309,0.063 -0.677,0.072 -0.141,0 -0.211,0.043 -0.211,0.129 0,0.079 0.078,0.118 0.234,0.118 h 0.208 1.254 2.1 c 1.464,0 2.361,0.026 2.691,0.078 C -0.2,2.149 -0.174,1.824 -0.13,1.287 -0.104,0.923 -0.069,0.598 -0.026,0.312 -0.009,0.19 0,0.086 0,0"
             style="fill:#d20a10;fill-opacity:1;fill-rule:nonzero;stroke:none"
             id="path34" /></g><g
           id="g36"
           transform="translate(341.7989,409.1707)"><path
             d="m 0,0 c 0,-0.39 -0.195,-0.585 -0.585,-0.585 -0.165,0 -0.304,0.055 -0.416,0.163 -0.113,0.108 -0.169,0.24 -0.169,0.397 0,0.407 0.194,0.61 0.585,0.61 C -0.195,0.585 0,0.391 0,0 m 0.975,-8.099 c 0,-0.078 -0.074,-0.117 -0.221,-0.117 0.009,0 -0.096,0.009 -0.313,0.027 -0.259,0.016 -0.476,0.025 -0.649,0.025 h -1.353 c -0.043,-0.034 -0.094,-0.052 -0.155,-0.052 -0.096,0 -0.143,0.032 -0.143,0.097 0,0.092 0.087,0.138 0.259,0.138 0.33,0.007 0.51,0.032 0.54,0.071 0.031,0.039 0.046,0.219 0.046,0.539 v 3.939 c -0.008,0.217 -0.019,0.345 -0.033,0.384 -0.013,0.039 -0.067,0.058 -0.162,0.058 h -0.377 -0.13 c -0.096,0 -0.143,0.03 -0.143,0.092 0,0.052 0.072,0.083 0.217,0.09 0.574,0.026 1.066,0.161 1.476,0.406 l 0.128,0.075 C 0.03,-2.457 0.064,-2.694 0.064,-3.04 v -0.13 -0.506 -3.541 c 0,-0.345 0.007,-0.549 0.02,-0.609 0.014,-0.061 0.059,-0.1 0.137,-0.117 0.129,-0.034 0.32,-0.052 0.572,-0.052 0.121,0 0.182,-0.034 0.182,-0.104"
             style="fill:#d20a10;fill-opacity:1;fill-rule:nonzero;stroke:none"
             id="path38" /></g><g
           id="g40"
           transform="translate(354.3955,401.0653)"><path
             d="m 0,0 c 0,-0.066 -0.065,-0.098 -0.195,-0.098 h -0.156 -0.637 -1.508 -0.092 c -0.112,0 -0.169,0.031 -0.169,0.091 0,0.043 0.025,0.069 0.073,0.078 0.046,0.009 0.213,0.018 0.5,0.027 0.165,0.007 0.259,0.032 0.286,0.071 0.026,0.038 0.039,0.179 0.039,0.421 v 2.49 c 0,0.942 -0.035,1.505 -0.105,1.687 C -2.111,5.155 -2.405,5.35 -2.848,5.35 -3.281,5.35 -3.644,5.159 -3.939,4.779 -4.026,4.667 -4.069,4.511 -4.069,4.312 V 0.266 c 0,-0.104 0.093,-0.161 0.277,-0.168 l 0.397,-0.014 c 0.087,0 0.131,-0.03 0.131,-0.091 0,-0.06 -0.051,-0.091 -0.155,-0.091 h -0.208 -0.91 -0.618 -0.552 -0.078 c -0.13,0 -0.195,0.027 -0.195,0.08 0,0.053 0.078,0.087 0.234,0.103 h 0.324 c 0.131,0 0.208,0.03 0.235,0.091 l 0.039,0.194 v 2.826 c 0,0.986 -0.009,1.531 -0.027,1.634 -0.016,0.104 -0.125,0.155 -0.324,0.155 h -0.312 -0.065 c -0.174,0 -0.261,0.032 -0.261,0.097 0,0.083 0.091,0.125 0.274,0.125 0.26,0.008 0.541,0.056 0.845,0.143 0.303,0.086 0.515,0.186 0.636,0.298 0.078,0.07 0.139,0.105 0.183,0.105 0.06,0 0.091,-0.083 0.091,-0.247 V 4.882 c 0.45,0.58 1.031,0.871 1.742,0.871 0.624,0 1.074,-0.23 1.351,-0.69 C -0.858,4.804 -0.78,4.309 -0.78,3.582 V 0.618 c 0,-0.278 0.013,-0.43 0.039,-0.455 0.052,-0.053 0.178,-0.078 0.377,-0.078 h 0.142 0.091 C -0.044,0.085 0,0.057 0,0"
             style="fill:#d20a10;fill-opacity:1;fill-rule:nonzero;stroke:none"
             id="path42" /></g><g
           id="g44"
           transform="translate(363.9375,404.5174)"><path
             d="m 0,0 c 0,0.832 -0.091,1.364 -0.273,1.599 -0.234,0.295 -0.534,0.442 -0.897,0.442 -0.469,0 -0.841,-0.243 -1.118,-0.729 -0.277,-0.485 -0.416,-1.135 -0.416,-1.95 0,-0.779 0.121,-1.447 0.364,-2.002 0.104,-0.233 0.258,-0.426 0.461,-0.578 0.204,-0.152 0.414,-0.227 0.631,-0.227 0.269,0 0.511,0.08 0.727,0.24 0.217,0.16 0.358,0.353 0.423,0.579 C -0.033,-2.401 0,-1.526 0,0 m 1.924,-3.264 c 0,-0.06 -0.061,-0.09 -0.182,-0.09 H 1.677 1.456 1.352 c -0.425,0 -0.785,-0.085 -1.08,-0.251 -0.121,-0.067 -0.194,-0.1 -0.22,-0.1 -0.078,0 -0.117,0.052 -0.117,0.155 l 0.012,0.404 c -0.372,-0.374 -0.814,-0.559 -1.325,-0.559 -0.728,0 -1.328,0.28 -1.801,0.842 -0.472,0.561 -0.709,1.277 -0.709,2.147 0,0.897 0.237,1.624 0.709,2.181 0.473,0.557 1.09,0.836 1.853,0.836 0.589,0 1.031,-0.213 1.326,-0.638 L 0,3.691 C 0,4.35 -0.03,4.758 -0.09,4.913 -0.142,5.044 -0.219,5.104 -0.321,5.096 -0.568,5.069 -0.719,5.057 -0.77,5.057 c -0.111,0 -0.166,0.039 -0.166,0.117 0,0.078 0.047,0.117 0.142,0.117 l 0.465,-0.014 c 0.258,-0.008 0.654,0.113 1.188,0.365 0.035,0.017 0.065,0.026 0.09,0.026 0.087,0 0.13,-0.104 0.13,-0.313 V 5.083 4.719 0.233 c 0,-2.053 0.017,-3.154 0.052,-3.301 0.017,-0.061 0.221,-0.091 0.611,-0.091 0.121,0 0.182,-0.035 0.182,-0.105"
             style="fill:#d20a10;fill-opacity:1;fill-rule:nonzero;stroke:none"
             id="path46" /></g><g
           id="g48"
           transform="translate(386.7002,409.9324)"><path
             d="m 0,0 c 0,-0.065 -0.074,-0.099 -0.221,-0.099 -0.477,-0.008 -0.771,-0.091 -0.884,-0.249 -0.104,-0.096 -0.477,-0.84 -1.118,-2.233 -0.286,-0.616 -0.555,-1.157 -0.806,-1.625 -0.173,-0.322 -0.273,-0.542 -0.299,-0.659 -0.026,-0.117 -0.039,-0.371 -0.039,-0.763 v -2.464 c 0,-0.287 0.037,-0.456 0.11,-0.508 0.074,-0.052 0.332,-0.091 0.774,-0.118 0.234,-0.016 0.351,-0.056 0.351,-0.122 0,-0.066 -0.06,-0.098 -0.182,-0.098 H -2.47 l -1.82,0.039 c -0.512,0 -0.932,-0.009 -1.261,-0.027 -0.053,-0.009 -0.113,-0.012 -0.182,-0.012 -0.121,0 -0.182,0.041 -0.182,0.123 0,0.082 0.1,0.127 0.299,0.136 0.476,0.018 0.759,0.061 0.844,0.13 0.087,0.07 0.13,0.277 0.13,0.621 v 2.734 c -0.086,0.19 -0.337,0.697 -0.754,1.52 L -6.695,-1.1 c -0.13,0.251 -0.286,0.534 -0.468,0.845 -0.096,0.087 -0.301,0.131 -0.617,0.131 -0.317,0 -0.475,0.047 -0.475,0.143 0,0.069 0.069,0.103 0.208,0.103 0.182,0 0.546,-0.008 1.092,-0.025 0.312,-0.009 0.537,-0.013 0.676,-0.013 l 1.507,0.019 c 0.061,0.013 0.13,0.019 0.209,0.019 0.156,0 0.234,-0.043 0.234,-0.13 0,-0.079 -0.148,-0.118 -0.443,-0.118 -0.537,0 -0.805,-0.096 -0.805,-0.287 0,-0.148 0.272,-0.746 0.818,-1.792 l 1.181,-2.235 c 0.216,0.387 0.462,0.865 0.737,1.433 l 0.768,1.547 c 0.29,0.558 0.435,0.924 0.435,1.099 0,0.113 -0.074,0.178 -0.221,0.196 -0.303,0.043 -0.507,0.061 -0.611,0.052 -0.191,-0.009 -0.286,0.035 -0.286,0.131 0,0.07 0.082,0.104 0.247,0.104 h 0.754 0.429 C -0.442,0.148 0,0.107 0,0"
             style="fill:#d20a10;fill-opacity:1;fill-rule:nonzero;stroke:none"
             id="path50" /></g><g
           id="g52"
           transform="translate(396.4112,403.8153)"><path
             d="m 0,0 c 0,0.953 -0.147,1.694 -0.441,2.223 -0.217,0.389 -0.581,0.585 -1.093,0.585 -0.486,0 -0.864,-0.249 -1.137,-0.748 -0.273,-0.499 -0.41,-1.189 -0.41,-2.074 0,-0.875 0.145,-1.557 0.435,-2.047 0.291,-0.49 0.696,-0.734 1.216,-0.734 0.399,0 0.694,0.151 0.884,0.455 C -0.182,-1.769 0,-0.988 0,0 m 1.184,-0.014 c 0,-0.841 -0.256,-1.545 -0.768,-2.112 -0.512,-0.567 -1.149,-0.852 -1.911,-0.852 -0.788,0 -1.447,0.285 -1.976,0.852 -0.528,0.567 -0.793,1.271 -0.793,2.112 0,0.867 0.258,1.586 0.774,2.159 0.515,0.572 1.159,0.858 1.93,0.858 0.781,0 1.432,-0.288 1.956,-0.864 0.525,-0.578 0.788,-1.294 0.788,-2.153"
             style="fill:#d20a10;fill-opacity:1;fill-rule:nonzero;stroke:none"
             id="path54" /></g><g
           id="g56"
           transform="translate(409.6709,401.4363)"><path
             d="m 0,0 c 0,-0.062 -0.096,-0.096 -0.286,-0.104 -0.676,-0.043 -1.27,-0.191 -1.781,-0.442 -0.035,-0.017 -0.065,-0.026 -0.091,-0.026 -0.052,0 -0.078,0.034 -0.078,0.103 V 0.26 c -0.396,-0.555 -0.951,-0.832 -1.663,-0.832 -0.637,0 -1.093,0.184 -1.368,0.554 -0.112,0.156 -0.178,0.297 -0.2,0.427 -0.021,0.129 -0.032,0.478 -0.032,1.046 v 2.956 c 0,0.301 -0.018,0.478 -0.052,0.529 -0.035,0.052 -0.152,0.081 -0.351,0.09 h -0.169 c -0.234,-0.017 -0.351,0.018 -0.351,0.105 0,0.06 0.073,0.091 0.221,0.091 0.156,0 0.382,-0.012 0.676,-0.036 0.147,-0.01 0.234,-0.016 0.26,-0.016 0.303,0 0.585,0.016 0.845,0.052 v -3.61 c 0,-0.664 0.043,-1.104 0.13,-1.32 0.139,-0.336 0.42,-0.504 0.845,-0.504 0.46,0 0.798,0.189 1.014,0.569 0.156,0.276 0.234,0.716 0.234,1.32 v 2.005 c 0,0.293 -0.013,0.513 -0.039,0.66 v 0.426 c -0.009,0.13 -0.037,0.206 -0.084,0.227 -0.048,0.022 -0.146,0.032 -0.293,0.032 -0.365,-0.009 -0.546,0.031 -0.546,0.117 0,0.051 0.091,0.078 0.273,0.078 h 0.116 0.69 0.962 V 1.599 c 0,-0.624 0.013,-1.019 0.039,-1.183 C -1.054,0.251 -0.987,0.155 -0.881,0.13 -0.773,0.104 -0.531,0.091 -0.154,0.091 -0.052,0.091 0,0.061 0,0"
             style="fill:#d20a10;fill-opacity:1;fill-rule:nonzero;stroke:none"
             id="path58" /></g><g
           id="g60"
           transform="translate(419.1348,405.908)"><path
             d="m 0,0 c 0,-0.199 -0.061,-0.364 -0.182,-0.494 -0.121,-0.13 -0.277,-0.195 -0.467,-0.195 -0.157,0 -0.287,0.046 -0.391,0.136 -0.104,0.091 -0.155,0.206 -0.155,0.345 0,0.121 0.039,0.226 0.116,0.312 0.078,0.087 0.117,0.147 0.117,0.182 0,0.13 -0.095,0.194 -0.286,0.194 -0.242,0 -0.45,-0.15 -0.624,-0.452 -0.199,-0.353 -0.299,-1.008 -0.299,-1.966 v -2.561 c 0,-0.103 0.037,-0.168 0.11,-0.194 0.075,-0.027 0.297,-0.043 0.67,-0.052 0.096,-0.018 0.143,-0.052 0.143,-0.104 0,-0.061 -0.056,-0.091 -0.169,-0.091 H -1.976 -2.964 -3.51 -3.939 c -0.138,0 -0.208,0.026 -0.208,0.078 0,0.052 0.056,0.078 0.169,0.078 h 0.182 c 0.295,0 0.469,0.035 0.521,0.104 0.016,0.035 0.025,0.197 0.025,0.484 v 3.594 c 0,0.478 -0.071,0.754 -0.214,0.829 -0.143,0.074 -0.371,0.115 -0.683,0.124 -0.104,0 -0.156,0.03 -0.156,0.091 0,0.061 0.043,0.091 0.13,0.091 h 0.091 c 0.131,0 0.261,-0.007 0.391,-0.019 0.13,-0.014 0.186,-0.02 0.169,-0.02 0.32,0 0.675,0.091 1.065,0.273 l 0.169,0.078 0.104,0.039 C -2.149,0.676 -2.132,0.468 -2.132,0.26 V 0 c 0.278,0.589 0.668,0.884 1.17,0.884 0.277,0 0.507,-0.084 0.689,-0.253 C -0.091,0.462 0,0.251 0,0"
             style="fill:#d20a10;fill-opacity:1;fill-rule:nonzero;stroke:none"
             id="path62" /></g><g
           id="g64"
           transform="translate(439.0254,407.8582)"><path
             d="m 0,0 c 0,-0.122 -0.044,-0.183 -0.13,-0.183 -0.087,0 -0.147,0.111 -0.182,0.33 -0.104,0.631 -0.317,1.092 -0.637,1.382 -0.208,0.184 -0.53,0.298 -0.962,0.342 -0.156,0.018 -0.503,0.027 -1.04,0.027 -0.399,0 -0.876,-0.013 -1.43,-0.04 v -3.821 c 1.109,-0.009 1.794,0.063 2.054,0.214 0.26,0.151 0.416,0.579 0.468,1.281 0.017,0.2 0.069,0.299 0.156,0.299 0.086,0 0.13,-0.065 0.13,-0.195 0,-0.078 -0.005,-0.143 -0.013,-0.196 -0.026,-0.597 -0.039,-1.152 -0.039,-1.664 0,-0.658 0.014,-1.178 0.041,-1.559 0.007,-0.035 0.011,-0.087 0.011,-0.156 0,-0.104 -0.043,-0.157 -0.13,-0.157 -0.069,0 -0.112,0.027 -0.129,0.078 -0.018,0.053 -0.048,0.252 -0.091,0.599 -0.069,0.528 -0.205,0.858 -0.407,0.987 -0.203,0.131 -0.606,0.196 -1.21,0.196 -0.319,0 -0.6,-0.009 -0.841,-0.027 v -1.325 -2.549 c 0,-0.251 0.098,-0.411 0.295,-0.48 0.095,-0.035 0.305,-0.048 0.63,-0.039 0.137,0 0.206,-0.035 0.206,-0.105 0,-0.077 -0.087,-0.116 -0.261,-0.116 h -0.13 -0.494 -0.402 -1.938 c -0.164,0 -0.247,0.034 -0.247,0.105 0,0.069 0.15,0.112 0.45,0.129 0.298,0.018 0.474,0.059 0.526,0.125 0.052,0.065 0.078,0.267 0.078,0.606 v 7.483 c -0.01,0.158 -0.056,0.255 -0.139,0.294 -0.083,0.039 -0.309,0.063 -0.677,0.072 -0.141,0 -0.211,0.043 -0.211,0.129 0,0.079 0.078,0.118 0.234,0.118 h 0.208 1.254 2.1 c 1.464,0 2.361,0.026 2.691,0.078 C -0.2,2.149 -0.174,1.824 -0.13,1.287 -0.104,0.923 -0.069,0.598 -0.026,0.312 -0.009,0.19 0,0.086 0,0"
             style="fill:#d20a10;fill-opacity:1;fill-rule:nonzero;stroke:none"
             id="path66" /></g><g
           id="g68"
           transform="translate(448.3467,405.0633)"><path
             d="M 0,0 C -0.035,1.04 -0.408,1.56 -1.118,1.56 -1.82,1.56 -2.258,1.04 -2.432,0 Z M 1.131,-2.652 C 1.131,-2.739 1.064,-2.893 0.929,-3.114 0.795,-3.335 0.658,-3.515 0.52,-3.653 0.147,-4.035 -0.352,-4.226 -0.976,-4.226 c -0.779,0 -1.431,0.283 -1.956,0.846 -0.524,0.563 -0.787,1.261 -0.787,2.093 0,0.866 0.249,1.59 0.748,2.171 0.498,0.58 1.12,0.871 1.866,0.871 0.615,0 1.13,-0.181 1.546,-0.54 C 0.857,0.855 1.079,0.394 1.105,-0.169 0.827,-0.213 0.459,-0.23 0,-0.222 h -0.91 c -0.061,0 -0.581,-0.012 -1.561,-0.038 -0.043,-0.285 -0.064,-0.557 -0.064,-0.816 0,-0.872 0.167,-1.544 0.5,-2.015 0.334,-0.47 0.804,-0.705 1.411,-0.705 0.347,0 0.624,0.077 0.832,0.233 0.208,0.157 0.433,0.456 0.676,0.898 0.034,0.069 0.082,0.104 0.142,0.104 0.07,0 0.105,-0.031 0.105,-0.091"
             style="fill:#d20a10;fill-opacity:1;fill-rule:nonzero;stroke:none"
             id="path70" /></g><g
           id="g72"
           transform="translate(459.1368,405.0633)"><path
             d="M 0,0 C -0.035,1.04 -0.408,1.56 -1.119,1.56 -1.821,1.56 -2.259,1.04 -2.432,0 Z M 1.131,-2.652 C 1.131,-2.739 1.062,-2.893 0.93,-3.114 0.795,-3.335 0.658,-3.515 0.52,-3.653 0.146,-4.035 -0.352,-4.226 -0.976,-4.226 c -0.78,0 -1.432,0.283 -1.957,0.846 -0.524,0.563 -0.786,1.261 -0.786,2.093 0,0.866 0.249,1.59 0.747,2.171 0.499,0.58 1.12,0.871 1.867,0.871 0.615,0 1.13,-0.181 1.546,-0.54 C 0.857,0.855 1.078,0.394 1.104,-0.169 0.826,-0.213 0.459,-0.23 0,-0.222 h -0.91 c -0.061,0 -0.581,-0.012 -1.561,-0.038 -0.044,-0.285 -0.065,-0.557 -0.065,-0.816 0,-0.872 0.167,-1.544 0.501,-2.015 0.333,-0.47 0.803,-0.705 1.41,-0.705 0.348,0 0.625,0.077 0.832,0.233 0.209,0.157 0.434,0.456 0.676,0.898 0.035,0.069 0.082,0.104 0.144,0.104 0.069,0 0.104,-0.031 0.104,-0.091"
             style="fill:#d20a10;fill-opacity:1;fill-rule:nonzero;stroke:none"
             id="path74" /></g><g
           id="g76"
           transform="translate(468.7432,401.0848)"><path
             d="m 0,0 c 0,-0.078 -0.057,-0.117 -0.17,-0.117 h -0.155 c -0.018,0 -0.247,0.009 -0.69,0.026 h -0.402 c -0.07,0 -0.416,-0.007 -1.04,-0.019 -0.053,-0.004 -0.104,-0.007 -0.156,-0.007 -0.13,-0.008 -0.196,0.028 -0.196,0.11 0,0.057 0.048,0.085 0.144,0.085 h 0.338 c 0.242,0 0.363,0.052 0.363,0.156 0.009,0.052 0.014,0.39 0.014,1.014 v 6.617 c 0,0.286 -0.009,0.443 -0.027,0.468 -0.026,0.069 -0.095,0.105 -0.208,0.105 h -0.103 -0.364 c -0.122,0 -0.183,0.036 -0.183,0.11 0,0.065 0.108,0.102 0.325,0.11 0.416,0.027 0.802,0.121 1.157,0.286 l 0.274,0.13 0.103,0.039 c 0.07,-0.252 0.1,-0.633 0.091,-1.144 V 7.046 0.676 c 0,-0.26 0.005,-0.413 0.014,-0.461 C -0.863,0.167 -0.832,0.135 -0.78,0.117 -0.772,0.108 -0.611,0.1 -0.3,0.091 -0.101,0.091 0,0.06 0,0"
             style="fill:#d20a10;fill-opacity:1;fill-rule:nonzero;stroke:none"
             id="path78" /></g><g
           id="g80"
           transform="translate(244.3487,429.493)"><path
             d="m 0,0 c -0.024,0.073 -0.11,0.308 -0.257,0.703 -0.992,2.86 -1.71,4.868 -2.157,6.027 -0.118,0.323 -0.283,0.794 -0.495,1.415 L -3.157,8.802 C -3.6,7.741 -4.14,6.274 -4.779,4.401 -5.492,2.305 -6.008,0.838 -6.327,0 h 0.814 0.814 2.072 z m 11.766,-8.658 c 0,-0.199 -0.093,-0.315 -0.278,-0.352 -0.185,-0.037 -0.66,-0.055 -1.424,-0.055 -0.198,0 -0.753,0.012 -1.665,0.037 -1.826,0.048 -3.084,0.074 -3.774,0.074 -0.814,0 -1.53,-0.013 -2.146,-0.037 -1.234,-0.049 -2.072,-0.074 -2.516,-0.074 -0.666,0 -0.999,0.123 -0.999,0.37 0,0.246 0.703,0.381 2.109,0.407 0.345,0 0.604,0.024 0.777,0.074 0.394,0.049 0.592,0.196 0.592,0.443 0,0.123 -0.148,0.642 -0.444,1.554 l -0.777,2.405 c -0.148,0.543 -0.469,1.541 -0.962,2.997 h -0.666 -2.886 c -1.036,0.025 -2.134,0.013 -3.293,-0.037 -0.222,-0.493 -0.642,-1.603 -1.258,-3.33 l -0.814,-2.404 c -0.124,-0.37 -0.185,-0.666 -0.185,-0.889 0,-0.419 0.271,-0.69 0.814,-0.813 0.123,-0.026 0.727,-0.074 1.813,-0.149 0.345,-0.022 0.518,-0.128 0.518,-0.314 0,-0.21 -0.222,-0.314 -0.666,-0.314 h -6.105 -0.481 c -0.346,0 -0.518,0.123 -0.518,0.37 0,0.148 0.382,0.246 1.147,0.296 0.986,0.048 1.615,0.234 1.887,0.554 0.271,0.321 0.715,1.357 1.332,3.109 0.468,1.233 1.147,3.058 2.035,5.475 L -2.59,13.06 c 0.222,0.542 0.53,1.394 0.925,2.553 0.271,0.839 0.481,1.259 0.629,1.259 0.148,0 0.419,-0.568 0.814,-1.702 0.493,-1.456 2.663,-7.203 6.51,-17.243 0.494,-1.282 0.988,-2.59 1.482,-3.921 0.419,-1.135 0.838,-1.826 1.258,-2.072 0.32,-0.198 1.085,-0.285 2.294,-0.259 0.296,0 0.444,-0.112 0.444,-0.333"
             style="fill:#1d1d1b;fill-opacity:1;fill-rule:nonzero;stroke:none"
             id="path82" /></g><g
           id="g84"
           transform="translate(268.2129,420.7049)"><path
             d="m 0,0 c 0,-0.185 -0.467,-0.277 -1.4,-0.277 -0.222,0 -0.91,0.025 -2.065,0.074 -0.59,0.024 -1.167,0.037 -1.732,0.037 -0.541,0 -1.549,-0.025 -3.023,-0.074 l -1.106,-0.037 c -0.541,-0.025 -0.811,0.061 -0.811,0.258 0,0.198 0.283,0.284 0.851,0.259 0.863,-0.025 1.362,0.062 1.498,0.259 0.136,0.196 0.204,0.935 0.204,2.216 v 19.47 c 0,0.837 -0.088,1.336 -0.263,1.496 -0.175,0.16 -0.688,0.24 -1.538,0.24 -0.625,0 -0.937,0.091 -0.937,0.275 0,0.209 0.319,0.327 0.957,0.354 2.75,0.098 4.996,0.517 6.738,1.258 V 12.82 3.607 c 0,-1.677 0.043,-2.658 0.13,-2.941 0.086,-0.283 0.389,-0.413 0.906,-0.389 H -0.48 C -0.16,0.277 0,0.186 0,0"
             style="fill:#1d1d1b;fill-opacity:1;fill-rule:nonzero;stroke:none"
             id="path86" /></g><g
           id="g88"
           transform="translate(280.4971,420.7049)"><path
             d="m 0,0 c 0,-0.185 -0.467,-0.277 -1.4,-0.277 -0.222,0 -0.91,0.025 -2.065,0.074 -0.59,0.024 -1.168,0.037 -1.732,0.037 -0.541,0 -1.549,-0.025 -3.024,-0.074 l -1.105,-0.037 c -0.541,-0.025 -0.812,0.061 -0.812,0.258 0,0.198 0.283,0.284 0.852,0.259 0.862,-0.025 1.362,0.062 1.498,0.259 0.136,0.196 0.203,0.935 0.203,2.216 v 19.47 c 0,0.837 -0.088,1.336 -0.262,1.496 -0.176,0.16 -0.688,0.24 -1.538,0.24 -0.626,0 -0.937,0.091 -0.937,0.275 0,0.209 0.318,0.327 0.957,0.354 2.75,0.098 4.996,0.517 6.738,1.258 V 12.82 3.607 c 0,-1.677 0.043,-2.658 0.13,-2.941 0.086,-0.283 0.389,-0.413 0.906,-0.389 H -0.48 C -0.16,0.277 0,0.186 0,0"
             style="fill:#1d1d1b;fill-opacity:1;fill-rule:nonzero;stroke:none"
             id="path90" /></g><g
           id="g92"
           transform="translate(292.2266,426.9764)"><path
             d="m 0,0 h -1.555 -1.868 -0.906 -2.85 -1.775 V 3.811 H -7.179 -3.553 0 Z"
             style="fill:#1d1d1b;fill-opacity:1;fill-rule:nonzero;stroke:none"
             id="path94" /></g><g
           id="g96"
           transform="translate(313.6494,432.657)"><path
             d="m 0,0 c 0,4.901 -0.58,8.521 -1.739,10.862 -0.765,1.527 -1.974,2.29 -3.626,2.29 -1.678,0 -3.016,-1.071 -4.015,-3.214 -0.999,-2.143 -1.499,-5.012 -1.499,-8.608 0,-5.222 0.889,-9.126 2.664,-11.712 0.74,-1.084 1.814,-1.626 3.22,-1.626 1.628,0 2.774,0.777 3.44,2.328 C -0.518,-7.267 0,-4.04 0,0 m 6.512,0.572 c 0,-3.699 -1.154,-6.826 -3.46,-9.379 -2.307,-2.553 -5.137,-3.83 -8.491,-3.83 -3.282,0 -6.093,1.295 -8.436,3.886 -2.344,2.59 -3.516,5.71 -3.516,9.36 0,3.749 1.166,6.882 3.498,9.399 2.33,2.515 5.222,3.773 8.675,3.773 3.33,0 6.118,-1.263 8.363,-3.792 C 5.389,7.46 6.512,4.321 6.512,0.572"
             style="fill:#1d1d1b;fill-opacity:1;fill-rule:nonzero;stroke:none"
             id="path98" /></g><g
           id="g100"
           transform="translate(343.7666,421.6483)"><path
             d="m 0,0 c 0,-0.197 -0.21,-0.309 -0.629,-0.333 -2.245,-0.073 -3.799,-0.191 -4.662,-0.352 -0.863,-0.16 -1.604,-0.45 -2.22,-0.869 -0.148,-0.098 -0.284,-0.147 -0.407,-0.147 -0.099,0 -0.148,0.098 -0.148,0.296 v 0.832 0.759 c 0,0.221 -0.013,0.419 -0.037,0.591 -1.543,-1.652 -3.219,-2.478 -5.031,-2.478 -1.616,0 -2.888,0.518 -3.819,1.556 -0.587,0.644 -0.881,1.831 -0.881,3.561 v 2.634 2.187 4.822 c 0,0.543 -0.079,0.878 -0.237,1.001 -0.159,0.124 -0.602,0.198 -1.331,0.222 -0.632,0.025 -0.948,0.123 -0.948,0.296 0,0.197 0.172,0.296 0.518,0.296 h 0.407 c 0.37,0 0.931,-0.019 1.684,-0.055 0.752,-0.037 1.263,-0.055 1.535,-0.055 0.049,0 0.302,0.018 0.759,0.055 0.456,0.036 1.128,0.055 2.016,0.055 h 0.703 v -4.016 c 0,-1.908 -0.025,-3.308 -0.074,-4.201 -0.05,-0.892 -0.074,-1.276 -0.074,-1.152 0,-2.603 0.166,-4.227 0.499,-4.871 0.333,-0.645 0.857,-0.967 1.573,-0.967 0.814,0 1.578,0.458 2.294,1.373 0.222,0.272 0.352,0.55 0.389,0.835 0.036,0.284 0.055,0.982 0.055,2.096 v 6.38 c 0,1.804 -0.024,2.892 -0.073,3.263 -0.049,0.47 -0.352,0.705 -0.912,0.705 h -1.02 c -0.341,0 -0.511,0.099 -0.511,0.296 0,0.149 0.662,0.223 1.988,0.223 1.154,0 2.982,0.012 5.486,0.036 V 10.36 2.85 c 0,-1.161 0.024,-1.845 0.074,-2.054 C -2.985,0.586 -2.8,0.444 -2.48,0.37 -2.257,0.32 -1.591,0.297 -0.481,0.297 -0.161,0.297 0,0.197 0,0"
             style="fill:#1d1d1b;fill-opacity:1;fill-rule:nonzero;stroke:none"
             id="path102" /></g><g
           id="g104"
           transform="translate(357.9375,422.8328)"><path
             d="m 0,0 c 0,-0.271 -0.236,-0.629 -0.708,-1.073 -1.218,-1.159 -2.895,-1.74 -5.032,-1.74 -1.963,0 -3.256,0.482 -3.876,1.444 -0.249,0.37 -0.393,0.715 -0.43,1.036 -0.036,0.32 -0.055,1.147 -0.055,2.479 v 1.776 c 0.049,0.468 0.074,0.962 0.074,1.479 l -0.074,0.778 v 3.33 2.664 c 0,0.444 -0.062,0.703 -0.185,0.777 -0.124,0.073 -0.493,0.111 -1.111,0.111 -0.739,0 -1.109,0.098 -1.109,0.296 0,0.148 0.135,0.247 0.407,0.296 2.319,0.074 4.316,1.331 5.994,3.774 0.222,0.345 0.394,0.518 0.518,0.518 0.148,0 0.222,-0.173 0.222,-0.518 -0.025,-2.122 0.061,-3.281 0.259,-3.478 0.197,-0.198 0.801,-0.296 1.813,-0.296 1.036,0 1.764,0.049 2.183,0.148 0.05,0.024 0.098,0.037 0.148,0.037 0.099,0 0.148,-0.077 0.148,-0.233 0,-0.362 -0.159,-0.542 -0.477,-0.542 -1.003,-0.027 -2.116,-0.04 -3.339,-0.04 h -0.512 v -0.772 c 0,-6.577 0.048,-10.431 0.147,-11.56 0.225,-1.422 0.927,-2.134 2.103,-2.134 0.526,0 1.202,0.37 2.029,1.11 0.399,0.345 0.65,0.518 0.751,0.518 C -0.037,0.185 0,0.123 0,0"
             style="fill:#1d1d1b;fill-opacity:1;fill-rule:nonzero;stroke:none"
             id="path106" /></g><g
           id="g108"
           transform="translate(388.9424,445.6668)"><path
             d="m 0,0 c 0,-0.171 -0.124,-0.268 -0.37,-0.292 -1.308,-0.049 -2.127,-0.195 -2.46,-0.438 -0.333,-0.244 -0.697,-0.938 -1.092,-2.082 -0.197,-0.536 -0.494,-1.352 -0.888,-2.447 -1.307,-3.626 -3.417,-9.744 -6.327,-18.352 -0.394,-1.234 -0.678,-1.85 -0.851,-1.85 -0.222,0 -0.407,0.222 -0.555,0.666 -0.32,1.011 -0.727,2.158 -1.221,3.44 -0.74,1.999 -1.739,4.65 -2.997,7.956 -0.543,1.455 -1.382,3.613 -2.516,6.475 -0.616,1.554 -1.234,3.28 -1.85,5.18 -0.32,1.036 -0.986,1.541 -1.998,1.516 h -1.221 c -0.296,0 -0.444,0.106 -0.444,0.315 0,0.21 0.444,0.314 1.332,0.314 h 6.253 0.999 1.406 2.073 c 0.467,0 0.703,-0.11 0.703,-0.332 0,-0.198 -0.433,-0.309 -1.296,-0.334 -1.406,-0.025 -2.109,-0.247 -2.109,-0.666 0,-0.049 0.21,-0.704 0.632,-1.962 1.885,-5.628 3.546,-10.231 4.984,-13.809 0.321,0.789 0.913,2.43 1.776,4.921 0.222,0.666 0.741,2.171 1.557,4.512 1.137,3.353 1.708,5.395 1.708,6.129 0,0.441 -0.186,0.698 -0.556,0.771 -0.148,0.024 -0.716,0.049 -1.702,0.074 -0.493,0 -0.74,0.121 -0.74,0.366 0,0.22 0.172,0.33 0.518,0.33 h 1.739 1.295 0.962 0.851 1.184 0.666 C -0.185,0.401 0,0.268 0,0"
             style="fill:#1d1d1b;fill-opacity:1;fill-rule:nonzero;stroke:none"
             id="path110" /></g><g
           id="g112"
           transform="translate(397.0821,444.1444)"><path
             d="m 0,0 c 0,-0.691 -0.24,-1.282 -0.719,-1.775 -0.48,-0.495 -1.059,-0.741 -1.741,-0.741 -0.706,0 -1.3,0.235 -1.778,0.704 -0.481,0.467 -0.72,1.06 -0.72,1.775 0,0.69 0.239,1.259 0.72,1.702 0.478,0.444 1.096,0.666 1.854,0.666 0.681,0 1.248,-0.222 1.702,-0.666 C -0.228,1.222 0,0.666 0,0 m 2.59,-23.458 c 0,-0.173 -0.111,-0.259 -0.332,-0.259 h -4.903 -3.539 -0.552 -0.332 c -0.295,0 -0.443,0.079 -0.443,0.237 0,0.119 0.283,0.188 0.851,0.207 0.839,0.025 1.332,0.118 1.48,0.279 0.148,0.161 0.222,0.651 0.222,1.469 v 10.673 c 0,0.943 -0.08,1.507 -0.24,1.693 -0.161,0.186 -0.648,0.279 -1.462,0.279 -0.518,0 -0.82,0.013 -0.906,0.037 -0.087,0.025 -0.13,0.111 -0.13,0.259 0,0.173 0.185,0.26 0.555,0.26 2.713,0.023 5.032,0.443 6.956,1.258 0.049,-0.296 0.111,-1.111 0.185,-2.443 v -4.699 -6.956 c 0,-1.012 0.093,-1.604 0.277,-1.776 0.186,-0.172 0.821,-0.258 1.907,-0.258 0.27,0 0.406,-0.087 0.406,-0.26"
             style="fill:#1d1d1b;fill-opacity:1;fill-rule:nonzero;stroke:none"
             id="path114" /></g><g
           id="g116"
           transform="translate(414.1758,425.5711)"><path
             d="m 0,0 c 0,-1.653 -0.504,-2.991 -1.513,-4.015 -1.007,-1.024 -2.31,-1.536 -3.909,-1.536 -0.786,0 -1.721,0.198 -2.803,0.593 -0.885,0.32 -1.463,0.48 -1.733,0.48 -0.467,0 -0.774,-0.178 -0.922,-0.536 -0.147,-0.357 -0.258,-0.537 -0.332,-0.537 -0.147,0 -0.221,0.088 -0.221,0.261 0,0.149 0.02,0.385 0.059,0.708 0.059,0.472 0.089,1.291 0.089,2.458 v 0.372 0.819 0.633 c 0,0.274 0.061,0.41 0.184,0.41 0.147,0 0.258,-0.184 0.331,-0.554 0.221,-1.308 0.848,-2.4 1.879,-3.275 1.032,-0.876 2.187,-1.313 3.463,-1.313 0.811,0 1.468,0.252 1.971,0.758 0.504,0.506 0.756,1.166 0.756,1.979 0,0.642 -0.234,1.185 -0.703,1.629 -0.346,0.32 -1.271,0.727 -2.775,1.221 -1.85,0.616 -3.188,1.362 -4.014,2.238 -0.827,0.875 -1.24,1.992 -1.24,3.349 0,1.455 0.494,2.688 1.48,3.7 0.986,1.011 2.195,1.516 3.626,1.516 0.543,0 1.48,-0.172 2.812,-0.517 0.198,-0.05 0.345,-0.074 0.444,-0.074 0.543,0 0.949,0.333 1.221,0.999 0.049,0.123 0.111,0.184 0.185,0.184 0.173,0 0.259,-0.147 0.259,-0.443 l -0.037,-0.703 c -0.025,-0.099 -0.036,-0.272 -0.036,-0.519 0,-1.012 0.06,-2.047 0.184,-3.107 V 6.992 c 0,-0.197 -0.074,-0.296 -0.222,-0.296 -0.124,0 -0.222,0.112 -0.295,0.333 -0.716,2.517 -2.171,3.775 -4.367,3.775 -0.814,0 -1.486,-0.222 -2.016,-0.666 -0.532,-0.445 -0.796,-1.012 -0.796,-1.702 0,-0.642 0.223,-1.148 0.666,-1.517 0.444,-0.37 1.307,-0.79 2.59,-1.259 C -3.49,4.871 -1.974,4.082 -1.184,3.293 -0.395,2.503 0,1.405 0,0"
             style="fill:#1d1d1b;fill-opacity:1;fill-rule:nonzero;stroke:none"
             id="path118" /></g><g
           id="g120"
           transform="translate(424.6465,444.1444)"><path
             d="m 0,0 c 0,-0.691 -0.24,-1.282 -0.719,-1.775 -0.48,-0.495 -1.059,-0.741 -1.741,-0.741 -0.706,0 -1.3,0.235 -1.778,0.704 -0.481,0.467 -0.72,1.06 -0.72,1.775 0,0.69 0.239,1.259 0.72,1.702 0.478,0.444 1.096,0.666 1.854,0.666 0.681,0 1.248,-0.222 1.702,-0.666 C -0.227,1.222 0,0.666 0,0 m 2.59,-23.458 c 0,-0.173 -0.11,-0.259 -0.332,-0.259 h -4.902 -3.54 -0.552 -0.332 c -0.295,0 -0.443,0.079 -0.443,0.237 0,0.119 0.284,0.188 0.851,0.207 0.839,0.025 1.332,0.118 1.48,0.279 0.148,0.161 0.222,0.651 0.222,1.469 v 10.673 c 0,0.943 -0.08,1.507 -0.24,1.693 -0.161,0.186 -0.648,0.279 -1.462,0.279 -0.518,0 -0.82,0.013 -0.906,0.037 -0.087,0.025 -0.13,0.111 -0.13,0.259 0,0.173 0.185,0.26 0.555,0.26 2.713,0.023 5.032,0.443 6.956,1.258 0.049,-0.296 0.111,-1.111 0.185,-2.443 v -4.699 -6.956 c 0,-1.012 0.093,-1.604 0.277,-1.776 0.186,-0.172 0.821,-0.258 1.907,-0.258 0.27,0 0.406,-0.087 0.406,-0.26"
             style="fill:#1d1d1b;fill-opacity:1;fill-rule:nonzero;stroke:none"
             id="path122" /></g><g
           id="g124"
           transform="translate(441.4444,428.2713)"><path
             d="m 0,0 c 0,3.059 -0.209,5.155 -0.625,6.29 -0.466,1.259 -1.214,1.888 -2.243,1.888 -0.956,0 -1.704,-0.66 -2.243,-1.98 C -5.65,4.878 -5.92,3.059 -5.92,0.74 c 0,-3.231 0.318,-5.525 0.956,-6.882 0.515,-1.086 1.237,-1.628 2.169,-1.628 1.152,0 1.913,0.691 2.28,2.073 C -0.172,-4.391 0,-2.491 0,0 m 5.587,0.037 c 0,-2.64 -1.036,-4.772 -3.109,-6.4 -1.627,-1.284 -3.415,-1.925 -5.364,-1.925 -2.319,0 -4.323,0.833 -6.012,2.498 -1.691,1.665 -2.535,3.632 -2.535,5.901 0,2.368 0.844,4.385 2.535,6.05 1.689,1.665 3.73,2.497 6.123,2.497 2.293,0 4.26,-0.844 5.901,-2.534 1.641,-1.69 2.461,-3.719 2.461,-6.087"
             style="fill:#1d1d1b;fill-opacity:1;fill-rule:nonzero;stroke:none"
             id="path126" /></g><g
           id="g128"
           transform="translate(469.8965,420.6863)"><path
             d="M 0,0 C 0,-0.197 -0.309,-0.296 -0.924,-0.296 H -1.887 -4.476 -5.66 -8.842 c -0.345,0 -0.519,0.092 -0.519,0.276 0,0.162 0.146,0.243 0.437,0.243 h 0.291 c 0.629,0 0.998,0.08 1.108,0.241 0.107,0.161 0.162,0.713 0.162,1.655 v 7.178 c 0,2.652 -0.17,4.239 -0.51,4.76 -0.291,0.446 -0.812,0.67 -1.566,0.67 -0.752,0 -1.371,-0.235 -1.857,-0.702 -0.486,-0.467 -0.728,-1.058 -0.728,-1.771 V 1.07 c 0.048,-0.296 0.153,-0.486 0.314,-0.573 0.16,-0.086 0.561,-0.142 1.202,-0.165 0.198,0 0.297,-0.074 0.297,-0.222 0,-0.148 -0.088,-0.234 -0.26,-0.258 -0.172,-0.025 -0.79,-0.037 -1.849,-0.037 -1.062,0 -1.938,-0.012 -2.627,-0.037 -1.358,-0.049 -2.738,-0.074 -4.145,-0.074 -0.296,0 -0.444,0.086 -0.444,0.259 0,0.196 0.376,0.295 1.129,0.295 0.752,0 1.189,0.147 1.313,0.443 l 0.112,0.516 v 8.488 c 0,2.387 -0.026,3.629 -0.075,3.728 -0.074,0.369 -0.407,0.553 -0.999,0.553 h -0.85 -0.407 c -0.396,0 -0.592,0.08 -0.592,0.242 0,0.161 0.146,0.253 0.441,0.276 2.749,0.124 4.946,0.703 6.592,1.739 0.196,0.099 0.33,0.149 0.404,0.149 0.198,0 0.295,-0.199 0.295,-0.592 v -2.11 c 1.308,1.703 2.986,2.553 5.032,2.553 2.122,0 3.502,-0.74 4.145,-2.22 0.271,-0.617 0.437,-1.307 0.5,-2.072 0.061,-0.764 0.092,-2.344 0.092,-4.736 V 1.851 c 0,-0.765 0.06,-1.216 0.185,-1.351 C -2.096,0.364 -1.695,0.296 -1.018,0.296 -0.338,0.296 0,0.197 0,0"
             style="fill:#1d1d1b;fill-opacity:1;fill-rule:nonzero;stroke:none"
             id="path130" /></g></g></g></g></svg>
