<?xml version="1.0" encoding="UTF-8" standalone="no"?>
<svg
   xmlns:dc="http://purl.org/dc/elements/1.1/"
   xmlns:cc="http://creativecommons.org/ns#"
   xmlns:rdf="http://www.w3.org/1999/02/22-rdf-syntax-ns#"
   xmlns:svg="http://www.w3.org/2000/svg"
   xmlns="http://www.w3.org/2000/svg"
   xmlns:sodipodi="http://sodipodi.sourceforge.net/DTD/sodipodi-0.dtd"
   xmlns:inkscape="http://www.inkscape.org/namespaces/inkscape"
   version="1.1"
   id="svg2"
   xml:space="preserve"
   width="793.70135"
   height="1122.52"
   viewBox="0 0 793.70135 1122.52"
   sodipodi:docname="all out logo 1.ai"><metadata
     id="metadata8"><rdf:RDF><cc:Work
         rdf:about=""><dc:format>image/svg+xml</dc:format><dc:type
           rdf:resource="http://purl.org/dc/dcmitype/StillImage" /></cc:Work></rdf:RDF></metadata><defs
     id="defs6"><clipPath
       clipPathUnits="userSpaceOnUse"
       id="clipPath18"><path
         d="M 0,841.89 H 595.276 V 0 H 0 Z"
         id="path16" /></clipPath></defs><sodipodi:namedview
     pagecolor="#ffffff"
     bordercolor="#666666"
     borderopacity="1"
     objecttolerance="10"
     gridtolerance="10"
     guidetolerance="10"
     inkscape:pageopacity="0"
     inkscape:pageshadow="2"
     inkscape:window-width="640"
     inkscape:window-height="480"
     id="namedview4" /><g
     id="g10"
     inkscape:groupmode="layer"
     inkscape:label="all out logo 1"
     transform="matrix(1.3333333,0,0,-1.3333333,0,1122.52)"><g
       id="g12"><g
         id="g14"
         clip-path="url(#clipPath18)"><g
           id="g20"
           transform="translate(296.6035,417.8785)"><path
             d="M 0,0 C -5.248,-2.172 -9.253,-6.744 -10.647,-12.346 L -18.504,3.17 -31.793,-22.881 c -4.746,-9.969 -19.935,-6.961 -19.935,-6.961 l 33.224,66.451 z"
             style="fill:#d20a10;fill-opacity:1;fill-rule:nonzero;stroke:none"
             id="path22" /></g><g
           id="g24"
           transform="translate(321.1733,396.9926)"><path
             d="m 0,0 c 0.312,1.332 0.476,2.719 0.476,4.145 0,10.004 -8.111,18.115 -18.115,18.115 -1.002,0 -1.982,-0.082 -2.94,-0.239 l -17.589,35.474 c 0,0 13.922,2.372 19.776,-6.647 L -4.943,24.056 8.665,51.165 c 0,0 3.639,8.161 19.935,6.612 z"
             style="fill:#d20a10;fill-opacity:1;fill-rule:nonzero;stroke:none"
             id="path26" /></g><g
           id="g28"
           transform="translate(315.8995,401.1372)"><path
             d="m 0,0 c 0,-6.829 -5.536,-12.366 -12.366,-12.366 -6.829,0 -12.365,5.537 -12.365,12.366 0,6.829 5.536,12.366 12.365,12.366 C -5.536,12.366 0,6.829 0,0"
             style="fill:#1d1d1b;fill-opacity:1;fill-rule:nonzero;stroke:none"
             id="path30" /></g></g></g></g></svg>
